<?xml version="1.0" encoding="utf-8"?>
<!-- Generator: Adobe Illustrator 21.0.0, SVG Export Plug-In . SVG Version: 6.00 Build 0)  -->
<svg version="1.1" xmlns="http://www.w3.org/2000/svg"  x="0px" y="0px" width="32px" height="32px"
     viewBox="0 0 32 32" enable-background="new 0 0 32 32" xml:space="preserve">
<g id="icon_Name">
</g>
<g id="icons">
	<path fill="#6DB5E3" d="M21.2000122,17.5c0-1.8225708,1.477478-3.2999878,3.2999878-3.2999878
		S27.7999878,15.6774292,27.7999878,17.5c0,1.8225098-1.477478,3.2999878-3.2999878,3.2999878
		S21.2000122,19.3225098,21.2000122,17.5z M11.7999878,17.5c0-1.8225708-1.477478-3.2999878-3.2999878-3.2999878
		S5.2000122,15.6774292,5.2000122,17.5c0,1.8225098,1.477478,3.2999878,3.2999878,3.2999878S11.7999878,19.3225098,11.7999878,17.5z
		 M2.8745117,15.5999756H1.421814L7,10.3102417V3h5v2.5687866l4.5-4.2672729l15.078186,14.2984619h-1.4526978L16.5,2.6796875
		L2.8745117,15.5999756z M8,9.3619385l3-2.8448486V4H8V9.3619385z M16.5,18.7999878
		c1.8225098,0,3.2999878-1.477478,3.2999878-3.2999878c0-1.8225708-1.477478-3.2999878-3.2999878-3.2999878
		S13.2000122,13.6774292,13.2000122,15.5C13.2000122,17.3225098,14.6774902,18.7999878,16.5,18.7999878z M18.5,30H22v-6.166748
		c0-1.6147461-1.0012817-2.9901733-2.4144897-3.5548096c-0.0514526-0.0209351-0.1077271-0.0310059-0.1602783-0.0497437
		c-0.1690674-0.059082-0.3375854-0.1187134-0.5164795-0.1538696C18.6689453,20.0266113,18.4212036,20,18.166748,20H14.833252
		c-0.2544556,0-0.5021973,0.0266113-0.7420044,0.0748291c-0.178894,0.0351562-0.3474121,0.0947876-0.5164795,0.1538696
		c-0.0525513,0.0187378-0.1088257,0.0288086-0.1602783,0.0497437C12.0012817,20.8430786,11,22.2185059,11,23.833252V30h4.5H18.5z
		 M0,31v1h32v-1H0z M26.5,28H30v-2.166748c0-1.6147461-1.0012817-2.9901733-2.4144897-3.5548096
		c-0.0514526-0.0209351-0.1077271-0.0310059-0.1602783-0.0497437c-0.1690674-0.059082-0.3375854-0.1187134-0.5164795-0.1538696
		C26.6689453,22.0266113,26.4212036,22,26.166748,22H23v6h0.5H26.5z M6.0912476,22.0748291
		c-0.178894,0.0351562-0.3474121,0.0947876-0.5164795,0.1538696c-0.0525513,0.0187378-0.1088257,0.0288086-0.1602783,0.0497437
		C4.0012817,22.8430786,3,24.2185059,3,25.833252V28h4.5H10v-6H6.833252C6.5787964,22,6.3310547,22.0266113,6.0912476,22.0748291z"
		/>
</g>
</svg>
