<?xml version="1.0" encoding="utf-8"?>
<!-- Generator: Adobe Illustrator 21.0.2, SVG Export Plug-In . SVG Version: 6.00 Build 0)  -->
<svg version="1.1" xmlns="http://www.w3.org/2000/svg"  x="0px" y="0px" width="32px" height="32px"
	 viewBox="0 0 32 32" enable-background="new 0 0 32 32" xml:space="preserve">
<style type="text/css">
	.st0{fill:#6DB5E3;}
</style>
<g id="icon_name">
</g>
<g id="icons">
	<path class="st0" d="M32,23c0,0.6-2.2,1-5,1s-5-0.4-5-1c0-0.6,2.2-1,5-1S32,22.4,32,23z M22,24.6V25h0c0,0,0,0,0,0c0,0.6,2.2,1,5,1
		s5-0.4,5-1c0,0,0,0,0,0h0v-0.4c-0.9,0.4-2.4,0.7-5,0.7S22.9,25,22,24.6z M22,26.6V27h0c0,0,0,0,0,0c0,0.6,2.2,1,5,1s5-0.4,5-1
		c0,0,0,0,0,0h0v-0.4c-0.9,0.4-2.4,0.7-5,0.7S22.9,27,22,26.6z M22,28.6V29h0c0,0,0,0,0,0c0,0.6,2.2,1,5,1s5-0.4,5-1c0,0,0,0,0,0h0
		v-0.4c-0.9,0.4-2.4,0.7-5,0.7S22.9,29,22,28.6z M22,30.6V31h0c0,0,0,0,0,0c0,0.6,2.2,1,5,1s5-0.4,5-1c0,0,0,0,0,0h0v-0.4
		c-0.9,0.4-2.4,0.7-5,0.7S22.9,31,22,30.6z M27,20.8c-4.1,0-5.5,0.7-6,1.4V29h-6H2V19H0l3-3l2-3h3V8h4v1.9L21,3l11,10h-2v7.9
		C29.2,20.8,28.2,20.8,27,20.8z M6,22H4v2h2V22z M10,22H8v2h2V22z M17,15h-2v2h2V15z M22,15h-2v2h2V15z M25,17h2v-2h-2V17z"/>
</g>
</svg>
