<?xml version="1.0" encoding="utf-8"?>
<!-- Generator: Adobe Illustrator 21.1.0, SVG Export Plug-In . SVG Version: 6.00 Build 0)  -->
<svg version="1.1" xmlns="http://www.w3.org/2000/svg"  x="0px" y="0px" width="32px" height="32px"
	 viewBox="0 0 32 32" enable-background="new 0 0 32 32" xml:space="preserve">
<g id="icon_Name">
</g>
<g id="guides" display="none">
	<g display="inline">
		<g>
			<path fill="#E0E0E0" d="M27,5v22H5V5H27 M28,4H4v24h24V4L28,4z"/>
		</g>
		<g>
			<rect fill="none" width="32" height="32"/>
		</g>
	</g>
</g>
<g id="icons">
	<g>
		<path fill="#6DB5E3" d="M13.7110596,14.4990234c-0.5218506,0.3569336-0.8536377,0.9051514-0.8536377,1.5458374
			c0,1.0987549,1.1875,1.6317139,2.1425781,1.8338623V14.055481C14.5483398,14.1034546,14.1278687,14.2139893,13.7110596,14.4990234
			z"/>
		<path fill="#6DB5E3" d="M16,2l-5,5.0581055V4H7v6.7553711L3,15h1v14h24V15h1L16,2z M16.2038574,25.315979
			C16.1358643,25.3220215,16.0679932,25.322876,16,25.3265381V27h-1v-1.7052002
			c-0.0664062-0.0009155-0.1330566-0.0009766-0.2001953-0.0057373c-1.6069336-0.1132812-2.734375-0.6577148-3.6376953-1.7504883
			l-0.1313477-0.1586914l1.1445312-0.8896484l0.125,0.1347656C13.0287476,23.4103394,13.9719849,23.8441772,15,23.9736938
			v-4.7294312c-0.3268433-0.0683594-0.6347656-0.1348877-0.8979492-0.2119751
			c-0.6858521-0.2008667-1.4031372-0.4613037-1.9246216-0.9703979c-0.5384521-0.5257568-0.7366333-1.253479-0.7369995-1.9896851
			c-0.0004272-0.8641968,0.378418-1.6678467,1.0178223-2.2438965c0.3486938-0.314209,0.7590332-0.5552368,1.192688-0.7322998
			C14.1066284,12.9099731,14.5437622,12.8104248,15,12.751709V11h1v1.6824951
			c0.0139771,0.0006104,0.0278931-0.0009766,0.0418091,0.0007324c1.3617554,0.1702271,2.6629028,0.4967651,3.5162964,1.6697998
			l0.1230469,0.1689453l-1.199707,0.7944336l-0.1142578-0.1401367c-0.3104248-0.3807983-0.7050171-0.6899414-1.1505737-0.8972778
			C16.8009644,14.0855713,16.4204102,14.03125,16,14.0198364v4.1124268
			c0.1123047,0.0368042,0.2241211,0.0773315,0.3378906,0.1011353c2.0058594,0.3842773,3.8623047,1.0683594,3.8623047,3.4501953
			C20.2001953,23.9018555,18.2236328,25.1364136,16.2038574,25.315979z"/>
		<path fill="#6DB5E3" d="M16,19.4643555v4.546875c1.017395-0.0820312,2.1378174-0.5219727,2.5067749-1.5428467
			C18.5884399,22.2422485,18.625,22.001709,18.625,21.7617188C18.625,20.3165894,17.3247681,19.7869873,16,19.4643555z"/>
	</g>
</g>
</svg>
