<?xml version="1.0" encoding="utf-8"?>
<!-- Generator: Adobe Illustrator 21.0.0, SVG Export Plug-In . SVG Version: 6.00 Build 0)  -->
<svg version="1.1" xmlns="http://www.w3.org/2000/svg"  x="0px" y="0px" width="32px" height="32px"
     viewBox="0 0 32 32" enable-background="new 0 0 32 32" xml:space="preserve">
<g id="icon_name">
</g>
<g id="icons">
	<path fill="#6DB5E3" d="M17.5791016,21.815918L25,17.4657593v2.9622803c0,0.3543701-0.187561,0.682251-0.492981,0.8619385
		l-7.5,4.4117432c-0.3129272,0.184082-0.7011108,0.184082-1.0140381,0l-7.5-4.4117432
		C8.187561,21.1102905,8,20.7824097,8,20.4280396v-2.9620972l7.421875,4.3509521
		c0.3271484,0.190918,0.6992188,0.2919922,1.078125,0.2919922S17.2509766,22.0078125,17.5791016,21.815918z M29.6975708,11.7365112
		l-12.75-7.4741821c-0.2763672-0.1619873-0.6187744-0.1619873-0.8951416,0l-12.75,7.4741821
		C3.0314941,11.8953247,2.8649902,12.1859131,2.8649902,12.5s0.1665039,0.6046143,0.437439,0.7634888L4,13.6724243V25
		l-1.0465088,3.3509521c-0.0474243,0.1517944-0.0197754,0.3170776,0.0744629,0.4452515
		C3.1221313,28.9243164,3.2717285,29,3.4307861,29h2.1385498c0.1590576,0,0.3085938-0.0756836,0.402832-0.2037964
		c0.0942383-0.1281738,0.1218872-0.293457,0.0744629-0.4453125L5,25V14.258606l11.0524292,6.4790039
		c0.2763672,0.1620483,0.6187744,0.1620483,0.8951416,0l12.75-7.4741211c0.2709351-0.1588745,0.437439-0.4494019,0.437439-0.7634888
		S29.9685059,11.8953247,29.6975708,11.7365112z"/>
</g>
</svg>
