<?xml version="1.0" encoding="utf-8"?>
<!-- Generator: Adobe Illustrator 21.1.0, SVG Export Plug-In . SVG Version: 6.00 Build 0)  -->
<svg version="1.1" xmlns="http://www.w3.org/2000/svg"  x="0px" y="0px" width="32px" height="32px"
	 viewBox="0 0 32 32" enable-background="new 0 0 32 32" xml:space="preserve">
<g id="icon_name">
</g>
<g id="icons">
	<path fill="#6DB5E3" d="M31,30v1h-3.3277588C27.4611816,31.0033569,27.2370605,31,27,31H4
		c-0.2370605,0-0.4611816,0.0033569-0.6722412,0H0v-1h2v-5.1845093C2.5014038,25.4272461,3.7112427,26,6.5,26
		c2.2724609,0,4.2988281-1.3095703,6.2583008-2.5761719C14.6870117,22.1777344,17.5083008,21,19.5,21
		c2.0385742,0,3.3657227,0.4677734,4.7705078,0.9628906C25.607666,22.4338989,26.9951782,22.9143677,29,22.9855957V30H31z M6.5,6.25
		c0.4135742,0,0.75-0.3369141,0.75-0.7490234C7.2446289,5.2382812,6.9174805,2.8457031,6.5004883,2
		C6.0859375,2.8427734,5.7553711,5.2421875,5.75,5.5C5.75,5.9130859,6.0864258,6.25,6.5,6.25z M15.5,6.25
		c0.4135742,0,0.75-0.3369141,0.75-0.7490234C16.2446289,5.2382812,15.9174805,2.8457031,15.5004883,2
		C15.0859375,2.8427734,14.7553711,5.2421875,14.75,5.5C14.75,5.9130859,15.0864258,6.25,15.5,6.25z M6.5,25
		c1.9761353-0.0739746,3.7929688-1.1738281,5.715332-2.4160156C14.1811523,21.3134766,17.2133789,20,19.5,20
		c2.2094727,0,3.6806641,0.5185547,5.1030273,1.0195312C25.9158936,21.4819336,27.1695557,21.916626,29,21.9858398V17
		c0-1.1046143-0.8953857-2-2-2h-2V7h-1v8h-8V7h-1v8H7V7H6v8H4c-1.1046143,0-2,0.8953857-2,2v6.6281128
		C2.4007568,24.138916,3.97052,25.0946655,6.5,25z M24.5,6.25c0.4135742,0,0.75-0.3369141,0.75-0.7490234
		C25.2446289,5.2382812,24.9174805,2.8457031,24.5004883,2C24.0859375,2.8427734,23.7553711,5.2421875,23.75,5.5
		C23.75,5.9130859,24.0864258,6.25,24.5,6.25z"/>
</g>
</svg>
