<?xml version="1.0" encoding="utf-8"?>
<!-- Generator: Adobe Illustrator 21.0.0, SVG Export Plug-In . SVG Version: 6.00 Build 0)  -->
<svg version="1.1" xmlns="http://www.w3.org/2000/svg" x="0px" y="0px" width="32px" height="32px"
     viewBox="0 0 32 32" enable-background="new 0 0 32 32" xml:space="preserve">
<g id="icon_name">
</g>
<g id="icons">
	<path fill="#6DB5E3" d="M12.1500244,7.5c0-1.8501587,1.4998169-3.3500366,3.3499756-3.3500366S18.8499756,5.6498413,18.8499756,7.5
		S17.3501587,10.8499756,15.5,10.8499756S12.1500244,9.3501587,12.1500244,7.5z M22.5,16c-1.375,0-2.5,1.125-2.5,2.5V32h1V18.5
		c0-0.8271484,0.6728516-1.5,1.5-1.5s1.5,0.6728516,1.5,1.5V20h1v-1.5C25,17.125,23.875,16,22.5,16z M21.2130737,14.7698975
		C21.0928345,13.2069092,19.7894897,12,18.2219238,12h-5.4438477c-1.5675659,0-2.8709106,1.2069092-2.9911499,2.7698975
		l-0.6212769,8.0767212c-0.0427246,0.5554199,0.1481323,1.1035156,0.5266724,1.5122681
		C10.0340576,24.7279053,10.5026245,24.9431152,11,24.9833984V28c0,1.1045532,0.8954468,2,2,2h5
		c0.3661499,0,0.704834-0.1055908,1-0.2774048V17.1868286c0.385376-1.0231934,1.2036133-1.8304443,2.2293701-2.2053223
		L21.2130737,14.7698975z"/>
</g>
</svg>
