<?xml version="1.0" encoding="utf-8"?>
<!-- Generator: Adobe Illustrator 21.1.0, SVG Export Plug-In . SVG Version: 6.00 Build 0)  -->
<svg version="1.1" xmlns="http://www.w3.org/2000/svg"  x="0px" y="0px" width="32px" height="32px"
	 viewBox="0 0 32 32" enable-background="new 0 0 32 32" xml:space="preserve">
<style type="text/css">
	.st0{fill:#6DB5E3;}
</style>
<path class="st0" d="M22,25l-1,2l2.5,2l2.5-2l-1-2H22z M11.2,5.5c0-1.8,1.5-3.3,3.3-3.3s3.3,1.5,3.3,3.3c0,1.8-1.5,3.3-3.3,3.3
	S11.2,7.3,11.2,5.5z M23.5,21.2c-2.9,0-5.3,2.4-5.3,5.3c0,2.9,2.4,5.3,5.3,5.3s5.3-2.4,5.3-5.3C28.8,23.6,26.4,21.2,23.5,21.2z
	 M26.9,29.2l-0.7-0.5l-1.5,1.1l0.2,0.8c-0.4,0.2-0.9,0.3-1.4,0.3c-0.5,0-1-0.1-1.4-0.3l0.3-0.9l-1.5-1.1l-0.7,0.5
	c-0.6-0.7-0.9-1.6-0.9-2.6c0,0,0,0,0,0l0,0l0.8-0.1l0.5-1.8l-0.6-0.4c0.6-0.9,1.5-1.6,2.5-1.8l0.2,0.7h1.9l0.2-0.6
	c1,0.3,1.9,0.9,2.4,1.8l-0.7,0.5l0.6,1.8l0.8,0c0,0,0,0.1,0,0.1C27.8,27.5,27.5,28.4,26.9,29.2z M17.2,26.8C17,26.9,16.8,27,16.5,27
	c-0.8,0-1.5-0.7-1.5-1.5V20h-1v5.5c0,0.8-0.7,1.5-1.5,1.5S11,26.3,11,25.5V19v-1.5v-1.2l-1.2,1.9c-0.5,0.7-1.4,0.9-2.1,0.4
	c-0.7-0.5-0.9-1.4-0.4-2.1l3.8-5.8c0.1-0.4,0.5-0.8,1-0.8h5c0.5,0,0.8,0.3,1,0.8l3.8,5.8c0.5,0.7,0.3,1.6-0.4,2.1
	c-0.7,0.5-1.6,0.3-2.1-0.4L18,16.3v1.2V19v4.4c-0.5,0.9-0.8,2-0.8,3.1C17.2,26.6,17.2,26.7,17.2,26.8z"/>
</svg>
