<?xml version="1.0" encoding="utf-8"?>
<!-- Generator: Adobe Illustrator 21.0.0, SVG Export Plug-In . SVG Version: 6.00 Build 0)  -->
<svg version="1.1" xmlns="http://www.w3.org/2000/svg" x="0px" y="0px" width="32px" height="32px"
     viewBox="0 0 32 32" enable-background="new 0 0 32 32" xml:space="preserve">
<g id="icon_name">
</g>
<g id="icons">
	<path fill="#6DB5E3" d="M12.1500244,7.5c0-1.8501587,1.4998169-3.3500366,3.3499756-3.3500366S18.8499756,5.6498413,18.8499756,7.5
		S17.3501587,10.8499756,15.5,10.8499756S12.1500244,9.3501587,12.1500244,7.5z M17,27.75h0.6811523
		c-2.206543-0.7573242-3.7563477-2.840332-3.7563477-5.25c0-3.0742188,2.5009766-5.5751953,5.574707-5.5751953
		c0.670105,0,1.3100586,0.124939,1.9057007,0.3425903l-0.1921387-2.4974976C21.0928345,13.2069092,19.7894897,12,18.2219238,12
		h-5.4438477c-1.5675659,0-2.8709106,1.2069092-2.9911499,2.7698975l-0.6212769,8.0767212
		c-0.0427246,0.5554199,0.1481323,1.1035156,0.5266724,1.5122681C10.0340576,24.7279053,10.5026245,24.9431152,11,24.9833984V28
		c0,1.1045532,0.8954468,2,2,2h2.75v-1C15.75,28.3095703,16.3095703,27.75,17,27.75z M20.0001221,26.7745361L20.000061,29H22v1
		h-1.999939L20,31.999939L19,32v-2h-2v-1h2.000061v-2.2253418C16.8496704,26.5241699,15.1745605,24.7175293,15.1745605,22.5
		c0-2.3886719,1.9364014-4.3250122,4.3250122-4.3250122S23.824585,20.1113281,23.824585,22.5
		C23.824585,24.7171631,22.1499023,26.5235596,20.0001221,26.7745361z M22.8247681,22.5
		c0-1.8334961-1.4916992-3.3251953-3.3251953-3.3251953S16.1743774,20.6665039,16.1743774,22.5
		s1.4916992,3.3251953,3.3251953,3.3251953S22.8247681,24.3334961,22.8247681,22.5z"/>
</g>
</svg>
