<?xml version="1.0" encoding="utf-8"?>
<!-- Generator: Adobe Illustrator 21.0.0, SVG Export Plug-In . SVG Version: 6.00 Build 0)  -->
<svg version="1.1" xmlns="http://www.w3.org/2000/svg" x="0px" y="0px" width="32px" height="32px"
     viewBox="0 0 32 32" enable-background="new 0 0 32 32" xml:space="preserve">
<g id="icon_name">
</g>
<g id="icons">
	<path fill="#6DB5E3" d="M11.1500244,7.5c0-1.8501587,1.4998169-3.3500366,3.3499756-3.3500366S17.8499756,5.6498413,17.8499756,7.5
		S16.3501587,10.8499756,14.5,10.8499756S11.1500244,9.3501587,11.1500244,7.5z M12.9248047,24.5
		c0-3.0742188,2.5009766-5.5751953,5.574707-5.5751953c0.4359131,0,0.8583374,0.0553589,1.265686,0.1504517
		C19.7635498,19.0489502,19.75,19.0266724,19.75,19v-1c0-0.4597778,0.2601318-0.8446655,0.6298828-1.0617676l-0.1668091-2.168335
		C20.0928345,13.2069092,18.7894897,12,17.2219238,12h-5.4438477c-1.5675659,0-2.8709106,1.2069092-2.9911499,2.7698975
		l-0.6212769,8.0767212c-0.0427246,0.5554199,0.1481323,1.1035156,0.5266724,1.5122681
		C9.0340576,24.7279053,9.5026245,24.9431152,10,24.9833984V28c0,1.1045532,0.8954468,2,2,2h5
		c0.1295776,0,0.2556152-0.0145874,0.3782959-0.038147C14.8400879,29.4414062,12.9248047,27.1901855,12.9248047,24.5z M25,18v1v3h-1
		v-2.293335l-2.1225586,2.1224976C22.4614258,22.5664673,22.824585,23.4863892,22.824585,24.5
		c0,2.3886108-1.9364014,4.3250122-4.3250122,4.3250122S14.1745605,26.8886108,14.1745605,24.5
		c0-2.3886719,1.9364014-4.3250122,4.3250122-4.3250122c1.0135498,0,1.9334717,0.3631592,2.6707764,0.9470825L23.2924805,19H21v-1h3
		H25z M21.8247681,24.5c0-1.8334961-1.4916992-3.3251953-3.3251953-3.3251953S15.1743774,22.6665039,15.1743774,24.5
		s1.4916992,3.3251953,3.3251953,3.3251953S21.8247681,26.3334961,21.8247681,24.5z M24,19h-0.0003662L24,19.0003662V19z"/>
</g>
</svg>
