<?xml version="1.0" encoding="utf-8"?>
<!-- Generator: Adobe Illustrator 21.1.0, SVG Export Plug-In . SVG Version: 6.00 Build 0)  -->
<svg version="1.1" xmlns="http://www.w3.org/2000/svg" x="0px" y="0px" width="32px" height="32px"
	 viewBox="0 0 32 32" enable-background="new 0 0 32 32" xml:space="preserve">
<g id="icon_Name">
</g>
<g id="icons">
	<g>
		<circle fill="#6DB5E3" cx="15.5" cy="15.5" r="4.3250122"/>
		<circle fill="#6DB5E3" cx="22.5" cy="5.5" r="4.3250122"/>
		<circle fill="#6DB5E3" cx="8.5" cy="5.5" r="4.3250122"/>
		<path fill="#6DB5E3" d="M25.5599976,12h-5.7263184c0.7749634,0.9577026,1.2415161,2.1748657,1.2415161,3.5
			c0,2.421936-1.5549927,4.4822998-3.7169189,5.25h1.2012939c1.4468994,0,2.7841187,0.4663696,3.8797607,1.25H31v-4.5599976
			C31,14.4355469,28.5644531,12,25.5599976,12z"/>
		<path fill="#6DB5E3" d="M12.4404297,20.75h1.201355c-2.1619263-0.7677002-3.71698-2.828064-3.71698-5.25
			c0-1.3251343,0.4665527-2.5422974,1.2415161-3.5H5.4400024C2.4355469,12,0,14.4355469,0,17.4400024V22h8.5606689
			C9.656311,21.2163696,10.9935303,20.75,12.4404297,20.75z"/>
		<path fill="#6DB5E3" d="M18.5599976,22h-6.1199951C9.4355469,22,7,24.4355469,7,27.4400024V32h17v-4.5599976
			C24,24.4355469,21.5644531,22,18.5599976,22z"/>
	</g>
</g>
</svg>
