<?xml version="1.0" encoding="utf-8"?>
<!-- Generator: Adobe Illustrator 21.1.0, SVG Export Plug-In . SVG Version: 6.00 Build 0)  -->
<svg version="1.1" xmlns="http://www.w3.org/2000/svg" x="0px" y="0px" width="32px" height="32px"
	 viewBox="0 0 32 32" enable-background="new 0 0 32 32" xml:space="preserve">
<g id="icon_Name">
</g>
<g id="guides" display="none">
	<g display="inline">
		<g>
			<path fill="#E0E0E0" d="M27,5v22H5V5H27 M28,4H4v24h24V4L28,4z"/>
		</g>
		<g>
			<rect fill="none" width="32" height="32"/>
		</g>
	</g>
</g>
<g id="icons">
	<rect x="21" y="9" fill="#6DB5E3" width="10" height="1"/>
	<rect x="21" y="12" fill="#6DB5E3" width="10" height="1"/>
	<rect x="21" y="15" fill="#6DB5E3" width="10" height="1"/>
	<rect x="21" y="18" fill="#6DB5E3" width="10" height="1"/>
	<rect x="21" y="21" fill="#6DB5E3" width="10" height="1"/>
	<rect x="1" y="4" fill="#6DB5E3" width="30" height="1"/>
	<rect x="1" y="27" fill="#6DB5E3" width="30" height="1"/>
	<g>
		<polygon fill="#6DB5E3" points="10,8 1,14 3,14 3,17 3,23 17,23 17,14 19,14 		"/>
		<rect x="5" y="9" fill="#6DB5E3" width="2" height="4"/>
		<rect x="5" y="17" fill="#FFFFFF" width="3" height="3"/>
		<rect x="11" y="17" fill="#FFFFFF" width="3" height="6"/>
	</g>
</g>
</svg>
