<?xml version="1.0" encoding="utf-8"?>
<!-- Generator: Adobe Illustrator 21.1.0, SVG Export Plug-In . SVG Version: 6.00 Build 0)  -->
<svg version="1.1" xmlns="http://www.w3.org/2000/svg" x="0px" y="0px" width="32px" height="32px"
	 viewBox="0 0 32 32" enable-background="new 0 0 32 32" xml:space="preserve">
<g id="icon_Name">
</g>
<g id="guides" display="none">
	<g display="inline">
		<g>
			<path fill="#E0E0E0" d="M27,5v22H5V5H27 M28,4H4v24h24V4L28,4z"/>
		</g>
		<g>
			<rect fill="none" width="32" height="32"/>
		</g>
	</g>
</g>
<g id="icons">
	<path fill="#6DB5E3" d="M3.6220703,24h12.7558594c0.4931641,0,0.925293-0.3505859,1.027832-0.8334961L18.9277954,16H1.0722046
		l1.5220337,7.1665039C2.6967773,23.6494141,3.1289062,24,3.6220703,24z"/>
	<path fill="#6DB5E3" d="M12,0v13h2v2h5.5c0.8284302,0,1.5,0.6715698,1.5,1.5V19h11V0H12z M30.2001953,15
		c0,0.1103516-0.0898438,0.2001953-0.2001953,0.2001953h-7v-1.4003906h4.9858398L21.5,7.3129883L19.6416016,9.171875
		C19.6025391,9.2109375,19.5512695,9.2304688,19.5,9.2304688s-0.1025391-0.0195312-0.1416016-0.0585938l-5.765625-5.7646484
		c-0.0371094-0.0375977-0.0585938-0.0883789-0.0585938-0.1416016s0.0214844-0.1040039,0.0585938-0.1416016l0.53125-0.53125
		c0.0375977-0.0371094,0.0883789-0.0585938,0.1416016-0.0585938s0.1040039,0.0214844,0.1416016,0.0585938L19.5,7.6870117
		l1.8583984-1.8588867C21.3974609,5.7890625,21.4487305,5.7695312,21.5,5.7695312s0.1025391,0.0195312,0.1416016,0.0585938
		l7.1582031,7.1577148V8h1.4003906V15z"/>
	<path fill="#6DB5E3" d="M7,14v3h6v-3H7z M12,16H8v-1h4V16z"/>
	<path fill="#6DB5E3" d="M18.5307617,23.4541016c-0.2138672,1.0117188-1.1191406,1.7460938-2.152832,1.7460938H11V27H9v-1.7998047
		H3.6220703c-1.0336914,0-1.9389648-0.734375-2.152832-1.7460938L0,16.4882812V31h20V16.4882812L18.5307617,23.4541016z"/>
</g>
</svg>
