<?xml version="1.0" encoding="utf-8"?>
<!-- Generator: Adobe Illustrator 18.0.0, SVG Export Plug-In . SVG Version: 6.00 Build 0)  -->
<!DOCTYPE svg PUBLIC "-//W3C//DTD SVG 1.1//EN" "http://www.w3.org/Graphics/SVG/1.1/DTD/svg11.dtd">
<svg version="1.1" id="Layer_1" xmlns="http://www.w3.org/2000/svg" xmlns:xlink="http://www.w3.org/1999/xlink" x="0px" y="0px"
	 viewBox="0 0 38 72" enable-background="new 0 0 38 72" xml:space="preserve">
<rect fill="none" width="38" height="72"/>
<path fill="#1D4474" d="M38,14.6C38,4.1,29.5,0,19,0C8.5,0,0,4.1,0,14.6l0,0v38.2L19,72l19-19.1V14.6C38,14.6,38,14.6,38,14.6z"/>
<path fill="#3C76BB" d="M2,52.1V14.6C2,3.6,12.7,2,19,2c6.3,0,17,1.6,17,12.6v37.4L19,69.2L2,52.1z"/>
<path fill="#2C67AE" d="M19,4v62.3l15-15.1V14.6C34,5.8,25.8,4,19,4z"/>
<circle fill="#FFFFFF" cx="19" cy="23" r="10.3"/>
</svg>
