<!DOCTYPE svg PUBLIC "-//W3C//DTD SVG 20010904//EN" "http://www.w3.org/TR/2001/REC-SVG-20010904/DTD/svg10.dtd">
<svg version="1.0" xmlns="http://www.w3.org/2000/svg" width="606px" height="630px" viewBox="0 0 6060 6300" preserveAspectRatio="xMidYMid meet">
<g id="layer101" fill="#e7e7e7" stroke="#666">
 <path d="M2576 5999 c-1310 -11 -2112 -21 -2118 -27 -7 -7 3 -76 25 -193 20 -101 241 -1243 492 -2538 251 -1295 452 -2358 448 -2362 -5 -5 -301 -10 -658 -11 l-650 -3 745 -187 c410 -103 1001 -253 1314 -333 530 -134 573 -144 615 -134 53 12 1072 263 2026 500 l660 164 -669 3 c-528 2 -667 5 -663 15 2 6 63 208 135 447 72 239 252 838 401 1330 850 2823 993 3298 998 3323 l6 27 -499 -1 c-275 -1 -1448 -10 -2608 -20z"/>
 </g>

</svg>